<svg width="16" height="13" viewBox="0 0 16 13" fill="none" xmlns="http://www.w3.org/2000/svg">
<path d="M15.1267 6.6962C15.1267 6.46266 15.0288 6.23666 14.8555 6.07092L9.90602 1.12143C9.71015 0.933088 9.50675 0.85022 9.29581 0.85022C8.81367 0.85022 8.46713 1.18923 8.46713 1.64877C8.46713 1.88984 8.56506 2.09324 8.71573 2.24391L10.4108 3.96155L12.5955 5.95792L10.8477 5.85245H1.71713C1.21238 5.85245 0.865845 6.19899 0.865845 6.6962C0.865845 7.18588 1.21238 7.53242 1.71713 7.53242H10.8477L12.5955 7.42695L10.4108 9.42332L8.71573 11.141C8.56506 11.2916 8.46713 11.495 8.46713 11.7361C8.46713 12.1956 8.81367 12.5346 9.29581 12.5346C9.50675 12.5346 9.71015 12.4518 9.89096 12.2785L14.8555 7.31395C15.0288 7.14821 15.1267 6.92221 15.1267 6.6962Z" fill="#2D74FF"/>
</svg>
