<svg width="18" height="18" viewBox="0 0 18 18" fill="none" xmlns="http://www.w3.org/2000/svg">
<path d="M8.99186 17.1177C13.6193 17.1177 17.4388 13.2983 17.4388 8.67899C17.4388 4.05971 13.6111 0.240234 8.9837 0.240234C4.36441 0.240234 0.553101 4.05971 0.553101 8.67899C0.553101 13.2983 4.37258 17.1177 8.99186 17.1177ZM8.99186 15.4365C5.24583 15.4365 2.25065 12.425 2.25065 8.67899C2.25065 4.93297 5.24583 1.92962 8.9837 1.92962C12.7297 1.92962 15.7412 4.93297 15.7494 8.67899C15.7576 12.425 12.7379 15.4365 8.99186 15.4365ZM11.53 10.8254C11.9462 10.8254 12.2074 10.5153 12.2074 10.0746V6.27958C12.2074 5.71645 11.8891 5.45529 11.3749 5.45529H7.55547C7.11476 5.45529 6.82912 5.72461 6.82912 6.13267C6.82912 6.54074 7.11476 6.81006 7.56363 6.81006H8.94289L10.0447 6.67948L8.84495 7.77309L5.98851 10.6295C5.84977 10.7683 5.75999 10.9641 5.75999 11.16C5.75999 11.5926 6.06196 11.8782 6.48635 11.8782C6.7067 11.8782 6.88625 11.8048 7.04131 11.6497L9.88143 8.80957L10.975 7.61802L10.8526 8.78509V10.0827C10.8526 10.5316 11.1219 10.8254 11.53 10.8254Z" fill="#96A6C2"/>
</svg>
