<svg width="23" height="23" viewBox="0 0 23 23" fill="none" xmlns="http://www.w3.org/2000/svg">
<path d="M11.5 0.25C10.0226 0.25 8.5597 0.54099 7.19478 1.10636C5.82987 1.67172 4.58968 2.50039 3.54502 3.54505C1.43524 5.65483 0.249971 8.51631 0.249971 11.5C0.240136 14.0978 1.13961 16.6171 2.79247 18.6212L0.542471 20.8712C0.386369 21.0295 0.280623 21.2303 0.238577 21.4486C0.196531 21.6668 0.220069 21.8926 0.306221 22.0975C0.399661 22.2999 0.551138 22.47 0.741424 22.5862C0.931709 22.7024 1.15222 22.7594 1.37497 22.75H11.5C14.4837 22.75 17.3451 21.5647 19.4549 19.455C21.5647 17.3452 22.75 14.4837 22.75 11.5C22.75 8.51631 21.5647 5.65483 19.4549 3.54505C17.3451 1.43526 14.4837 0.25 11.5 0.25V0.25ZM11.5 20.5H4.08622L5.13247 19.4537C5.342 19.243 5.45961 18.9578 5.45961 18.6606C5.45961 18.3634 5.342 18.0783 5.13247 17.8675C3.65938 16.396 2.74204 14.4594 2.53675 12.3874C2.33146 10.3154 2.85091 8.23638 4.0066 6.50446C5.1623 4.77254 6.88274 3.4949 8.8748 2.88922C10.8669 2.28354 13.0073 2.38728 14.9315 3.18278C16.8556 3.97828 18.4444 5.41631 19.4272 7.25188C20.41 9.08745 20.726 11.207 20.3212 13.2494C19.9165 15.2918 18.8162 17.1307 17.2077 18.4528C15.5992 19.7749 13.5821 20.4984 11.5 20.5V20.5Z" fill="#96A6C2"/>
</svg>
