<svg width="23" height="23" viewBox="0 0 23 23" fill="none" xmlns="http://www.w3.org/2000/svg">
<path d="M11.5 0.25C10.0226 0.25 8.5597 0.54099 7.19478 1.10636C5.82987 1.67172 4.58968 2.50039 3.54502 3.54505C1.43524 5.65483 0.249971 8.51631 0.249971 11.5C0.240136 14.0978 1.13961 16.6171 2.79247 18.6213L0.542471 20.8713C0.386369 21.0295 0.280623 21.2303 0.238577 21.4486C0.196531 21.6668 0.220069 21.8926 0.306221 22.0975C0.399661 22.2999 0.551138 22.47 0.741424 22.5862C0.931709 22.7024 1.15222 22.7594 1.37497 22.75H11.5C14.4837 22.75 17.3451 21.5647 19.4549 19.455C21.5647 17.3452 22.75 14.4837 22.75 11.5C22.75 8.51631 21.5647 5.65483 19.4549 3.54505C17.3451 1.43526 14.4837 0.25 11.5 0.25Z" fill="#3C7EF7"/>
</svg>
