<svg width="7" height="12" viewBox="0 0 7 12" fill="none" xmlns="http://www.w3.org/2000/svg">
<path d="M6.33319 6.13599C6.33319 5.93091 6.25702 5.75513 6.09296 5.60278L1.53436 1.13794C1.40546 1.00903 1.24139 0.938721 1.04803 0.938721C0.661315 0.938721 0.350768 1.24341 0.350768 1.63599C0.350768 1.82935 0.432799 1.99927 0.561706 2.13403L4.66913 6.13599L0.561706 10.1379C0.4328 10.2727 0.350769 10.4485 0.350769 10.636C0.350769 11.0286 0.661316 11.3333 1.04803 11.3333C1.24139 11.3333 1.40546 11.2629 1.53436 11.134L6.09296 6.67505C6.25702 6.51685 6.33319 6.34106 6.33319 6.13599Z" fill="#96A6C2" fill-opacity="0.5"/>
</svg>
