<svg width="6" height="14" viewBox="0 0 6 14" fill="none" xmlns="http://www.w3.org/2000/svg">
<path d="M5.98242 7.44476C5.98242 7.6596 5.90625 7.84375 5.74219 8.00335L1.18359 12.6808C1.05469 12.8158 0.890625 12.8895 0.697265 12.8895C0.310547 12.8895 -1.7829e-07 12.5703 -1.7829e-07 12.159C-1.7829e-07 11.9565 0.0820311 11.7785 0.210937 11.6373L4.31836 7.44476L0.210937 3.25223C0.0820311 3.11105 -1.7829e-07 2.9269 -1.7829e-07 2.73047C-1.7829e-07 2.3192 0.310547 2 0.697265 2C0.890625 2 1.05469 2.07366 1.18359 2.20871L5.74219 6.88002C5.90625 7.04576 5.98242 7.22991 5.98242 7.44476Z" fill="white"/>
</svg>
