<svg width="27" height="23" viewBox="0 0 27 23" fill="none" xmlns="http://www.w3.org/2000/svg">
<path d="M15 22.6155C21.0513 22.6155 26.0353 17.6208 26.0353 11.5802C26.0353 5.53962 21.03 0.544922 14.9894 0.544922C9.37566 0.544922 4.67979 4.84591 4.05012 10.2995C4.71181 10.1501 5.58695 10.1074 6.29133 10.2248C6.921 5.97719 10.5496 2.75412 14.9894 2.75412C19.888 2.75412 23.8368 6.68157 23.8368 11.5802C23.8368 13.9175 22.9403 16.0306 21.4569 17.5995C20.3576 16.3828 18.031 15.2729 14.9894 15.2729C14.0395 15.2729 13.1537 15.3796 12.3533 15.5717C12.4813 16.084 12.5454 16.6176 12.5454 17.1619C12.5454 18.9015 11.873 20.513 10.7844 21.7617C12.0865 22.306 13.5166 22.6155 15 22.6155ZM14.9894 13.5226C17.0598 13.5333 18.6714 11.7723 18.6714 9.48842C18.6714 7.33259 17.0491 5.52895 14.9894 5.52895C12.9403 5.52895 11.2967 7.33259 11.318 9.48842C11.3287 11.7723 12.9189 13.5013 14.9894 13.5226ZM5.52291 22.6689C8.5112 22.6689 11.0192 20.1715 11.0192 17.1619C11.0192 14.1523 8.54321 11.6656 5.52291 11.6656C2.51329 11.6656 0.0266113 14.1523 0.0266113 17.1619C0.0266113 20.1822 2.51329 22.6689 5.52291 22.6689ZM2.03303 17.1619C2.03303 16.7243 2.33186 16.4362 2.76943 16.4362H4.78652V14.4191C4.78652 13.9815 5.07467 13.6827 5.52291 13.6827C5.97116 13.6827 6.25931 13.9815 6.25931 14.4191V16.4362H8.2764C8.71397 16.4362 9.0128 16.7243 9.0128 17.1619C9.0128 17.6101 8.71397 17.8983 8.2764 17.8983H6.25931V19.9261C6.25931 20.3636 5.97116 20.6625 5.52291 20.6625C5.07467 20.6625 4.78652 20.3636 4.78652 19.9261V17.8983H2.76943C2.33186 17.8983 2.0437 17.6101 2.03303 17.1619Z" fill="#96A6C2"/>
</svg>
