<svg width="14" height="14" viewBox="0 0 14 14" fill="none" xmlns="http://www.w3.org/2000/svg">
<path d="M11.6667 0.333313H2.33337C1.80294 0.333313 1.29423 0.544027 0.919161 0.9191C0.544088 1.29417 0.333374 1.80288 0.333374 2.33331V11.6666C0.333374 12.1971 0.544088 12.7058 0.919161 13.0809C1.29423 13.4559 1.80294 13.6666 2.33337 13.6666H11.6667C11.7764 13.6651 11.8857 13.654 11.9934 13.6333L12.1934 13.5866H12.24H12.2734L12.52 13.4933L12.6067 13.4466C12.6734 13.4066 12.7467 13.3733 12.8134 13.3266C12.9024 13.2612 12.987 13.1899 13.0667 13.1133L13.1134 13.0533C13.1788 12.987 13.239 12.9157 13.2934 12.84L13.3534 12.7533C13.3999 12.6791 13.4401 12.601 13.4734 12.52C13.4917 12.488 13.5073 12.4545 13.52 12.42C13.5534 12.34 13.5734 12.2533 13.6 12.1666V12.0666C13.6378 11.9364 13.6602 11.8021 13.6667 11.6666V2.33331C13.6667 1.80288 13.456 1.29417 13.0809 0.9191C12.7058 0.544027 12.1971 0.333313 11.6667 0.333313ZM2.33337 12.3333C2.15656 12.3333 1.98699 12.2631 1.86197 12.1381C1.73695 12.013 1.66671 11.8435 1.66671 11.6666V8.79331L3.86004 6.59331C3.92202 6.53083 3.99575 6.48123 4.07699 6.44739C4.15823 6.41354 4.24537 6.39611 4.33337 6.39611C4.42138 6.39611 4.50852 6.41354 4.58976 6.44739C4.671 6.48123 4.74473 6.53083 4.80671 6.59331L10.54 12.3333H2.33337ZM12.3334 11.6666C12.3327 11.7488 12.3169 11.8302 12.2867 11.9066C12.2715 11.9391 12.2536 11.9704 12.2334 12C12.2155 12.0282 12.1955 12.055 12.1734 12.08L8.60671 8.51331L9.19337 7.92665C9.25535 7.86416 9.32908 7.81456 9.41032 7.78072C9.49156 7.74687 9.5787 7.72945 9.66671 7.72945C9.75472 7.72945 9.84185 7.74687 9.92309 7.78072C10.0043 7.81456 10.0781 7.86416 10.14 7.92665L12.3334 10.1266V11.6666ZM12.3334 8.23998L11.08 6.99998C10.6985 6.63797 10.1926 6.43617 9.66671 6.43617C9.14078 6.43617 8.63489 6.63797 8.25337 6.99998L7.66671 7.58665L5.74671 5.66665C5.36519 5.30464 4.85931 5.10283 4.33337 5.10283C3.80744 5.10283 3.30156 5.30464 2.92004 5.66665L1.66671 6.90665V2.33331C1.66671 2.1565 1.73695 1.98693 1.86197 1.86191C1.98699 1.73688 2.15656 1.66665 2.33337 1.66665H11.6667C11.8435 1.66665 12.0131 1.73688 12.1381 1.86191C12.2631 1.98693 12.3334 2.1565 12.3334 2.33331V8.23998ZM8.00004 2.99998C7.80226 2.99998 7.60892 3.05863 7.44447 3.16851C7.28002 3.27839 7.15185 3.43457 7.07616 3.6173C7.00047 3.80002 6.98067 4.00109 7.01926 4.19507C7.05784 4.38905 7.15308 4.56723 7.29293 4.70709C7.43279 4.84694 7.61097 4.94218 7.80495 4.98077C7.99893 5.01935 8.2 4.99955 8.38272 4.92386C8.56545 4.84817 8.72163 4.72 8.83151 4.55555C8.94139 4.3911 9.00004 4.19776 9.00004 3.99998C9.00004 3.73476 8.89468 3.48041 8.70715 3.29287C8.51961 3.10534 8.26526 2.99998 8.00004 2.99998Z" fill="#96A6C2"/>
</svg>
